PathFileType	4	(X/Y/Z)	pose_F01_0-94.trc
DataRate	CameraRate	NumFrames	NumMarkers	Units	OrigDataRate	OrigDataStartFrame	OrigNumFrames
30	30	9	21	m	30	82	94
Frame#	Time	CHip			RHip			RKnee			RAnkle			RBigToe			RSmallToe			RHeel			LHip			LKnee			LAnkle			LBigToe			LSmallToe			LHeel			Neck			Nose			RShoulder			RElbow			RWrist			LShoulder			LElbow			LWrist			
		X1	Y1	Z1	X2	Y2	Z2	X3	Y3	Z3	X4	Y4	Z4	X5	Y5	Z5	X6	Y6	Z6	X7	Y7	Z7	X8	Y8	Z8	X9	Y9	Z9	X10	Y10	Z10	X11	Y11	Z11	X12	Y12	Z12	X13	Y13	Z13	X14	Y14	Z14	X15	Y15	Z15	X16	Y16	Z16	X17	Y17	Z17	X18	Y18	Z18	X19	Y19	Z19	X20	Y20	Z20	X21	Y21	Z21	
82	2.7333333333333334	-0.3127063863405888	1.8181826167431905	-0.43562814571170566	-0.32301677478831103	1.8126027563933218	-0.3782538446740482	-0.3371609254643758	1.6910823115430087	-0.3804286608917069	-0.35502376589312723	1.5765211200964504	-0.372698087517559	-0.3194837708066165	1.5360450427319277	-0.36921513251635785	-0.4602093865542181	1.5202846739825437	-0.6875822798337595	-0.3697612892137624	1.5557686683503842	-0.4051902808483025	-0.29742998742568943	1.8224871982170308	-0.4969230428770068	-0.2730244746795098	1.7076787177548634	-0.46112540502341043	-0.28214561843675395	1.5834312626314908	-0.46594562689521263	-0.23257852257375766	1.551273468015042	-0.4247675482233989	-0.23138077482843866	1.548467962524468	-0.4655326634241437	-0.30204009707934504	1.5727912614818869	-0.47570620242425044	-0.31232933058626416	1.973994003283959	-0.45509275326578186	-0.26831402821025985	2.044459758213972	-0.46942325649564737	-1.8407668518134228	1.8911690584104006	1.3250533768014785	-0.3186341431605364	1.8833591355200947	-0.3510242493640864	-0.31061380124581434	1.8052575930014794	-0.34033307465173046	-0.30230875079428493	1.9799770330849753	-0.5401286688327334	-0.30204049912116804	1.887674137658173	-0.5544928520338608	-0.2913829445853743	1.8090795412087557	-0.5508410471397193
83	2.7666666666666666	-0.30803038709924035	1.816505799803226	-0.458743035903341	-0.3176487131584233	1.8133995787152413	-0.3985876281099444	-0.3378900451379726	1.693822871036332	-0.3895327942012369	-0.3626674559237197	1.5789955422505006	-0.39819216249732386	-0.3188348745908253	1.5366469954473714	-0.36521109252176986	-0.5829434941555934	1.5018417415350067	-1.0163435567826407	-0.369209849100941	1.5587022557791876	-0.40478578836392015	-0.29957216386048946	1.8194918582229478	-0.5083712241268394	-0.27948866905647535	1.7025361406348614	-0.471708768059113	-0.2806009663678907	1.5769629246436432	-0.4807088928248429	-0.23481554123848836	1.5574025723009899	-0.46939485157932054	-0.23773262408478427	1.5577723090537448	-0.49441371810667767	-0.2906992923475419	1.5685833584542497	-0.4929615336091895	-0.30095928007332273	1.973459467878312	-0.4764673483217277	-0.2594476510393133	2.0462222732615505	-0.4918783316282268	-1.823908489285705	1.8910392575379276	1.2922556322493939	-0.30441042398587165	1.8863726677754988	-0.3720199645329098	-0.2966211018395909	1.8109461330837306	-0.36613281691509647	-0.30043846916490696	1.9782303573270958	-0.5508970262839925	-0.2979754114500872	1.8880718728572377	-0.5699518481454919	-0.2870047874673003	1.810181763614627	-0.5703033081756324
84	2.8	-0.29716961131298586	1.8189883766097927	-0.4706074578129871	-0.3079377536557862	1.813586690313557	-0.41299830459961984	-0.3359875578809463	1.689892666082665	-0.4049009079306049	-0.3544149778631825	1.5632273904341176	-0.3999081202148879	-0.31818597837503415	1.537248948162815	-0.36120705252718194	-0.333614851035719	1.5401419065731994	-0.34919579915147797	-0.3686584089881197	1.561635843207991	-0.40438129587953775	-0.2864217570224793	1.8221439146173495	-0.5305482445824083	-0.2871584392632321	1.701779155740937	-0.49025349660016093	-0.2790563142990275	1.5704945866557956	-0.4954721587544732	-0.23705255990321905	1.5635316765869378	-0.5140221549352422	-0.24408447334112987	1.5670766555830216	-0.5232947727892117	-0.2793584876157387	1.5643754554266125	-0.5102168647941285	-0.3009518684724904	1.975180283974877	-0.4855996442681465	-0.26042863818426765	2.0455546907139963	-0.5036077624371815	-0.303381386340161	1.9705296439317703	-0.4120291821250843	-0.29990062966423003	1.887891305414221	-0.3817011668948051	-0.29676196872006677	1.821327320002728	-0.36628030159972413	-0.2901473729727019	1.9788541100539996	-0.570180267572423	-0.29391032377900633	1.8884696080563024	-0.5854108442571232	-0.2826266303492263	1.8112839860204981	-0.5897655692115454
85	2.8333333333333335	-0.29341168502482556	1.8218223721072948	-0.4837059468968049	-0.30252926832499605	1.8165336902043754	-0.4284904888421592	-0.32501770913219225	1.6904118189803463	-0.42138870239309345	-0.3542822820878141	1.5628026767493641	-0.3999380012869411	-0.3203582117063395	1.5365482807904323	-0.36786359543077	-0.3337094660985835	1.5411682269267062	-0.3490423933710568	-0.3672613971738611	1.5541015288019193	-0.4041590588768828	-0.2856125248173875	1.8255740432453762	-0.5365142100976974	-0.28824864589790455	1.6966694186797813	-0.5111153717598649	-0.27751166223016427	1.564026248667948	-0.5102354246841034	-0.23928957856794977	1.5696607808728857	-0.5586494582911639	-0.2504363225974755	1.5763810021122981	-0.5521758274717457	-0.26801768288393557	1.5601675523989753	-0.5274721959790676	-0.2951324149767444	1.975627645738982	-0.5006155873791611	-0.2603993824453414	2.047143574007424	-0.5126477026484394	-0.30063168339313256	1.970789719662101	-0.41973668318661506	-0.2975314531336382	1.890002103198585	-0.3983741523583601	-0.2819160966355349	1.8219293790827145	-0.3837840489687699	-0.2910001732085385	1.9806699638127787	-0.5821952031005676	-0.2898452361079255	1.888867343255367	-0.6008698403687543	-0.2782484732311523	1.812386208426369	-0.6092278302474585
86	2.8666666666666667	-0.2917045759228799	1.8195270047403356	-0.4943869125609082	-0.29819526943288316	1.814335762662895	-0.4377121070457616	-0.3156109352636819	1.6878434887604583	-0.4401560382083736	-0.3514988657673441	1.563620530391384	-0.40328829936759353	-0.31828740258335214	1.5356157153636592	-0.3700506653394149	-0.3325069904962656	1.5386297547541308	-0.35461305766030987	-0.3642324805297856	1.5506043904352425	-0.4068916887705176	-0.276255676418475	1.8227337304027622	-0.5591548244076139	-0.29443796416845025	1.691762866427508	-0.5348400558022065	-0.27596701016130104	1.5575579106801003	-0.5249986906137338	-0.2415265972326805	1.5757898851588337	-0.6032767616470855	-0.25678817185382113	1.585685348641575	-0.5810568821542796	-0.2566768781521324	1.5559596493713381	-0.5447275271640066	-0.2922387925648042	1.976744394679973	-0.5170084889335099	-0.250632724144381	2.0479935794301336	-0.532535871762685	-0.2951268006534835	1.972638545607223	-0.4351417588840188	-0.28832070389135134	1.8893497280047373	-0.4175619233226861	-0.2731323015454293	1.8203560258879756	-0.39798414759007084	-0.2897799333535131	1.979464294654898	-0.5955976108803709	-0.2857801484368447	1.8892650784544318	-0.6163288364803855	-0.2738703161130783	1.8134884308322403	-0.6286900912833716
87	2.9	-0.2868631790473916	1.8148582749703215	-0.5120996917958623	-0.29542508575126575	1.8118829859465289	-0.4451274109507224	-0.3063825824572002	1.6924430108119946	-0.4551393319237969	-0.3488449315481149	1.5695198481748578	-0.41152107841622787	-0.31604250185919197	1.5373297249060671	-0.37283403509661905	-0.33036743275883496	1.5412564823726662	-0.3571945559140201	-0.3634701392367468	1.5542928397209173	-0.41254002065944856	-0.277269613764952	1.818139313966042	-0.5702608129005018	-0.3002826296576313	1.6913580547080713	-0.5551548223162712	-0.2744223580924378	1.5510895726922527	-0.539761956543364	-0.2437636158974112	1.5819189894447816	-0.6479040650030072	-0.2631400211101667	1.5949896951708515	-0.6099379368368136	-0.24533607342032926	1.551751746343701	-0.5619828583489457	-0.2903131687964966	1.9755309896304567	-0.5273027413421743	-0.25157271679201065	2.0483240146465667	-0.5441294292587314	-0.2943443433164713	1.971783501851106	-0.44864997777851384	-0.2873490277102553	1.888168757664866	-0.42279905342991203	-0.2684616073427217	1.819229115215909	-0.4162349008064243	-0.2793021413931164	1.979397405558018	-0.6147914877274432	-0.28206530183997247	1.8927087951506396	-0.631712261277762	-0.27149148834272374	1.8236144137882335	-0.639680281824697
88	2.933333333333333	-0.28511975127034866	1.8217226399971036	-0.5274839514416786	-0.2958005349766797	1.8161734250374864	-0.46689987596361493	-0.29414770650877764	1.694757020991094	-0.4687701186226637	-0.3382735837247849	1.5698439977332512	-0.42282064334624136	-0.30369650666250403	1.539657107375756	-0.38656230725030827	-0.31626401586395064	1.5450562681922662	-0.3685620359787388	-0.35033403489239906	1.5582933318306929	-0.4269119466805592	-0.2783332937034692	1.8257614745089001	-0.5866435398961016	-0.29658673813019704	1.6898251426802762	-0.5718629732825449	-0.2728777060235746	1.544621234704405	-0.5545252224729944	-0.24600063456214188	1.5880480937307295	-0.6925313683589288	-0.26949187036651234	1.6042940417001283	-0.6388189915193476	-0.2339952686885261	1.5475438433160638	-0.5792381895338847	-0.28521369900925847	1.976086148315455	-0.5454813158200177	-0.25341670793172055	2.0486142389395816	-0.5505409211451745	-0.2956330235358634	1.9720366103486395	-0.46042662738381956	-0.2905691191021417	1.8903249521685932	-0.43317692031548877	-0.25993046838354134	1.821514600750119	-0.4395807561563636	-0.27786262212007645	1.9802418064227636	-0.6286550996596568	-0.2729174789408187	1.8980426618740942	-0.6498007082985864	-0.257970801443794	1.8246988690392327	-0.6617327032838992
89	2.966666666666667	-0.2877507441209649	1.8255451705602213	-0.537754096584168	-0.2937191900364267	1.8211612770225867	-0.47842740084215307	-0.2854048720746716	1.6964310069897606	-0.47842671029362455	-0.32770223590145486	1.5701681472916449	-0.4341202082762548	-0.28706952608339237	1.5421263826043308	-0.40487895944584545	-0.30134439051372935	1.547096463379242	-0.38949828718591656	-0.33719793054805125	1.5622938239404685	-0.44128387270166985	-0.2809671976999859	1.8273502708819493	-0.5964863041580486	-0.2915556650386556	1.6943444395668361	-0.5862609404394071	-0.27133305395471136	1.5381528967165574	-0.5692884884026246	-0.2482376532268726	1.5941771980166775	-0.7371586717148505	-0.275843719622858	1.6135983882294052	-0.6677000462018816	-0.22265446395672295	1.5433359402884266	-0.5964935207188238	-0.2841893476933332	1.9782334837659532	-0.5595556020978499	-0.25428475450468374	2.051442227838468	-0.5623680887435751	-0.2958700415362895	1.9738930256625955	-0.46944589934853165	-0.2920366565602889	1.8877512489525339	-0.4447046087401122	-0.25620128109827683	1.8208729899352734	-0.4528411728312683	-0.27650162511192167	1.9817517454806919	-0.6427273077576164	-0.2734047647748279	1.9009781260598935	-0.6614201059653223	-0.25826317515647984	1.8301591884579442	-0.6742064392104234
90	3.0	-0.2897030219406236	1.8236555423241214	-0.5442449150187354	-0.295432044844928	1.8195941412057877	-0.4849644271740859	-0.28005853600787495	1.6951261418201655	-0.47952090458571495	-0.3160071397740487	1.5764781881189078	-0.44707063497425015	-0.27717258184672594	1.5497259702796664	-0.42585623632114034	-0.28940195269096936	1.5573764344336771	-0.408548783204026	-0.3240618262037035	1.566294316050244	-0.4556557987227805	-0.28192123566287347	1.8264176853149632	-0.599807578403158	-0.29138576820919443	1.6964122657300313	-0.5953301653770633	-0.26978840188584813	1.5316845587287098	-0.584051754332255	-0.25047467189160333	1.6003063023026254	-0.7817859750707722	-0.2821955688792036	1.6229027347586817	-0.6965811008844156	-0.2113136592249198	1.5391280372607894	-0.6137488519037628	-0.2871218166562031	1.9783936650951948	-0.5690171141320568	-0.256239976563727	2.05059330402167	-0.568705513515305	-0.29997888061463646	1.9743166262510212	-0.48219674196594914	-0.2939481783251496	1.8880022358543014	-0.4511130141285133	-0.2637907186141278	1.8182383631197991	-0.4703826670764352	-0.27630267530140856	1.981968822755372	-0.651212149852762	-0.2746650396705531	1.9023592594819134	-0.6762247366640713	-0.25839539409166173	1.8279329938908957	-0.6861822199278359
